<?xml version="1.0" standalone="no"?>
<!DOCTYPE svg PUBLIC "-//W3C//DTD SVG 20010904//EN"
 "http://www.w3.org/TR/2001/REC-SVG-20010904/DTD/svg10.dtd">
<svg version="1.0" xmlns="http://www.w3.org/2000/svg"
 width="592.000000pt" height="449.000000pt" viewBox="0 0 592.000000 449.000000"
 preserveAspectRatio="xMidYMid meet">

<g transform="translate(0.000000,449.000000) scale(0.100000,-0.100000)"
fill="#000000" stroke="none">
<path d="M539 4017 c-48 -32 -68 -91 -48 -142 8 -21 27 -47 42 -59 l28 -21
2419 0 2419 0 28 21 c15 11 34 39 42 61 13 35 13 46 0 79 -8 22 -29 48 -48 61
l-34 23 -2407 0 -2407 0 -34 -23z"/>
<path d="M532 2415 c-61 -51 -66 -129 -12 -183 16 -16 43 -32 61 -36 41 -8
4757 -8 4798 0 18 4 45 20 61 36 54 54 49 132 -12 183 l-30 25 -2418 0 -2418
0 -30 -25z"/>
<path d="M574 839 c-97 -28 -123 -143 -48 -209 l35 -30 2419 0 2420 0 35 33
c63 57 54 149 -18 192 -31 20 -69 20 -2422 22 -1402 1 -2403 -2 -2421 -8z"/>
</g>
</svg>
