<?xml version="1.0" standalone="no"?>
<!DOCTYPE svg PUBLIC "-//W3C//DTD SVG 20010904//EN"
 "http://www.w3.org/TR/2001/REC-SVG-20010904/DTD/svg10.dtd">
<svg version="1.0" xmlns="http://www.w3.org/2000/svg"
 width="581.000000pt" height="462.000000pt" viewBox="0 0 581.000000 462.000000"
 preserveAspectRatio="xMidYMid meet">

<g transform="translate(0.000000,462.000000) scale(0.100000,-0.100000)"
fill="#000000" stroke="none">
<path d="M920 4137 c-30 -16 -51 -37 -67 -67 -27 -51 -29 -82 -5 -132 10 -23
336 -359 861 -890 l843 -853 -856 -850 c-767 -762 -856 -854 -862 -887 -3 -21
-3 -50 1 -65 9 -38 50 -90 85 -108 34 -18 112 -20 143 -4 12 6 403 392 870
858 l847 846 848 -846 c466 -466 857 -852 869 -858 12 -6 47 -11 78 -11 52 0
58 2 100 44 29 30 46 57 51 81 16 85 45 53 -866 957 l-850 843 838 840 c462
462 847 851 856 865 25 38 21 129 -7 171 -41 62 -128 86 -200 55 -18 -8 -387
-366 -875 -852 l-844 -837 -851 851 c-479 479 -864 856 -880 862 -44 16 -80
12 -127 -13z"/>
</g>
</svg>
