<?xml version="1.0" encoding="UTF-8"?>
<svg width="358px" height="219px" viewBox="0 0 358 219" version="1.1" xmlns="http://www.w3.org/2000/svg" xmlns:xlink="http://www.w3.org/1999/xlink">
    <title>Group 8</title>
    <g id="Desktop" stroke="none" stroke-width="1" fill="none" fill-rule="evenodd">
        <g id="01.-Home" transform="translate(-91.000000, -3599.000000)">
            <g id="decorations" transform="translate(91.000000, 3538.000000)">
                <g id="Group-8" transform="translate(0.000000, 61.000000)">
                    <circle id="Oval" fill="#000000" cx="322" cy="196" r="3"></circle>
                    <circle id="Oval-Copy-4" fill="#000000" cx="355.5" cy="207.5" r="2.5"></circle>
                    <circle id="Oval" fill="#EDCDCE" cx="106" cy="91" r="64"></circle>
                    <g id="Group-5" transform="translate(53.000000, 37.000000)">
                        <path d="M133.392702,10.163 C135.758702,9.649 139.391702,9.467 141.824702,8.939 C139.486702,6.925 136.255702,4.172 133.392702,2.851 L133.392702,10.163 Z M96.8887018,178.311 C96.8887018,178.311 139.122702,178.376 160.557702,178.376 C159.489702,177.251 158.674702,176.46 157.935702,175.605 C151.273702,167.902 146.109702,159.326 142.673702,149.707 C139.457702,140.705 137.357702,131.428 135.769702,122.035 C134.417702,114.036 133.327702,104.993 132.068702,96.978 C132.007702,96.592 130.095702,96.649 130.046702,97.057 C129.834702,98.812 128.731702,103.99 128.438702,105.727 C126.335702,118.165 124.854702,128.102 120.783702,140.05 C116.245702,153.37 109.438702,165.404 99.5087018,175.525 C98.6717018,176.379 96.8887018,178.311 96.8887018,178.311 L96.8887018,178.311 Z M70.5107018,178.965 C70.5107018,178.961 94.6057018,178.382 94.6057018,178.382 C104.742702,169.225 111.957702,158.045 116.929702,145.413 C121.146702,134.698 123.820702,123.524 126.024702,112.246 C126.889702,107.816 127.399702,103.316 128.094702,98.851 C128.249702,97.854 127.858702,97.456 126.890702,97.506 C126.565702,97.522 126.237702,97.491 125.911702,97.493 C113.641702,97.561 101.370702,97.193 89.1017018,97.311 C77.8167018,97.419 54.0797018,95.627 54.1237018,96.911 C54.2657018,101.106 53.8427018,108.128 53.8657018,112.326 C53.9237018,122.78 53.8977018,133.241 52.6027018,143.631 C51.1877018,154.982 49.3687018,166.266 45.8197018,177.194 C45.2307018,179.008 45.3177018,179.069 47.2407018,179.069 C54.7537018,179.068 62.9977018,178.965 70.5107018,178.965 L70.5107018,178.965 Z M28.1497018,134.94 C23.1667018,144.018 18.5567018,153.301 13.5377018,162.358 C10.5557018,167.738 7.10370181,172.857 3.85770181,178.091 C3.66170181,178.408 3.44270181,178.715 3.19870181,178.996 C2.50970181,179.79 1.60270181,179.685 1.25070181,178.689 C0.756701808,177.29 0.312701808,175.86 0.0197018081,174.409 C-0.0752981919,173.941 0.181701808,172.888 0.608701808,172.907 C2.17670181,172.973 2.77070181,176.693 2.77070181,176.693 C2.77070181,176.693 38.5147018,112.88 45.6557018,96.269 C45.6557018,96.269 49.2407018,89.514 51.3397018,87.843 C55.7827018,86.605 59.8017018,84.381 63.7817018,82.207 C67.8257018,79.998 71.7507018,77.513 75.4957018,74.825 C83.0367018,69.413 90.6157018,64.022 97.8157018,58.176 C105.928702,51.588 113.608702,44.474 120.074702,36.181 C124.129702,30.979 126.960702,25.102 129.436702,19.034 C129.875702,17.958 131.633702,15.488 131.719702,12.174 C131.806702,8.86 132.011702,0 132.011702,0 C132.011702,0 139.592702,5.155 140.868702,6.243 C142.559702,7.686 144.328702,9.038 146.151702,10.499 C145.710702,10.523 145.197702,10.537 144.686702,10.581 C141.630702,10.844 133.473702,12.145 133.473702,12.145 L133.237702,16.239 C137.637702,26.711 143.688702,36.1 151.472702,44.395 C157.153702,50.449 162.637702,56.688 168.306702,62.752 C173.201702,67.987 178.863702,72.328 184.664702,76.519 C190.036702,80.399 195.253702,84.508 201.215702,87.471 C204.093702,88.901 207.094702,91.09 210.066702,92.323 C210.066702,92.323 212.947702,93.558 213.863702,93.923 C214.789702,94.292 216.210702,95.906 216.639702,96.734 C223.720702,110.405 231.015702,123.969 237.899702,137.737 C243.370702,148.678 248.988702,159.523 255.304702,169.999 C256.410702,171.833 259.207702,175.543 259.434702,175.719 C259.716702,175.375 259.946702,175.038 260.231702,174.757 C260.921702,174.074 261.720702,173.925 262.478702,174.582 C263.229702,175.234 263.271702,176.087 262.641702,176.826 C262.102702,177.456 261.460702,178.033 260.764702,178.477 C260.489702,178.652 259.809702,178.553 259.544702,178.318 C258.713702,177.582 257.825702,176.824 257.254702,175.894 C253.568702,169.897 249.668702,164.006 246.387702,157.791 C239.243702,144.26 232.474702,130.532 225.459702,116.932 C221.887702,110.008 218.124702,103.182 214.418702,96.328 C214.195702,95.915 213.774702,95.523 213.350702,95.325 C212.506702,94.932 211.946702,95.104 211.930702,96.236 C211.747702,108.932 211.821702,121.593 213.683702,134.218 C215.878702,149.091 217.334702,160.899 220.867702,175.517 C220.878702,175.563 222.282702,179.412 222.270702,179.45 C222.069702,180.097 219.996702,179.881 219.723702,179.339 C219.271702,178.44 219.092702,177.395 218.857702,176.397 C215.835702,163.581 213.546702,150.635 211.680702,137.599 C209.911702,125.233 208.988702,112.839 209.438702,100.351 C209.501702,98.626 209.638702,96.899 209.600702,95.177 C209.590702,94.705 209.178702,93.994 208.768702,93.817 C199.931702,89.992 191.975702,84.752 184.243702,79.064 C177.306702,73.963 170.603702,68.617 164.699702,62.353 C159.741702,57.093 154.914702,51.702 150.198702,46.224 C146.521702,41.952 142.997702,37.536 139.601702,33.037 C136.607702,29.069 134.428702,24.617 132.812702,19.905 C132.665702,19.474 132.470702,19.06 132.150702,18.277 C131.726702,19.058 131.407702,19.525 131.205702,20.038 C128.173702,27.741 124.311702,34.976 118.651702,41.077 C114.881702,45.141 110.834702,48.948 106.906702,52.865 C95.9147018,63.823 83.5537018,73.048 70.5397018,81.423 C67.2097018,83.565 64.8997018,84.711 61.4657018,86.692 C61.0477018,86.934 57.4227018,87.886 57.0627018,88.377 C96.2987018,89.191 137.501702,88.173 176.679702,89.344 C176.693702,89.515 176.707702,89.687 176.721702,89.859 C176.183702,89.91 175.644702,89.998 175.105702,90.006 C159.571702,90.22 144.037702,90.537 128.501702,90.608 C106.150702,90.71 83.7987018,90.637 61.4467018,90.628 C59.2547018,90.627 57.0617018,90.572 54.8697018,90.512 C53.9347018,90.486 53.2517018,90.698 53.4307018,91.821 C53.5847018,92.789 52.9247018,94.176 54.8747018,94.19 C65.2737018,94.26 75.6727018,94.417 86.0717018,94.502 C101.046702,94.624 116.022702,94.705 130.997702,94.813 C154.090702,94.98 184.695702,94.135 207.788702,94.319 C208.788702,94.326 209.787702,94.476 210.786702,94.559 C210.792702,94.745 210.799702,94.931 210.806702,95.118 C209.805702,95.214 210.603702,96.275 209.602702,96.281 C203.209702,96.322 187.505702,96.417 181.113702,96.48 C170.150702,96.589 159.187702,96.764 148.224702,96.883 C144.119702,96.928 140.014702,96.905 135.908702,96.897 C133.276702,96.892 133.193702,96.908 133.620702,99.579 C134.800702,106.95 135.959702,114.326 137.288702,121.671 C138.117702,126.253 138.924702,130.88 140.293702,135.315 C143.280702,144.99 148.089702,153.627 155.642702,160.616 C159.522702,164.207 163.450702,167.694 167.900702,170.567 C169.554702,171.635 169.769702,172.756 168.593702,174.312 C167.951702,175.16 163.818702,179.198 163.818702,179.198 C163.818702,179.198 163.215702,178.454 162.907702,178.576 C162.801702,178.448 162.696702,178.321 162.590702,178.193 C163.006702,177.712 163.387702,177.196 163.842702,176.757 C166.414702,174.276 167.862702,172.649 167.862702,172.649 C163.575702,170.184 157.982702,164.867 154.435702,161.472 C150.771702,157.966 146.319702,152.125 145.034702,149.716 C143.749702,147.307 142.601702,145.154 142.601702,145.154 C142.601702,145.154 144.444702,149.624 146.194702,154.19 C147.945702,158.756 154.456702,169.249 161.097702,176.696 C162.203702,177.936 163.196702,178.543 164.931702,178.534 C181.822702,178.447 198.714702,178.471 215.606702,178.47 C216.350702,178.47 220.377702,178.474 221.104702,178.603 C221.388702,178.654 221.667702,179.812 221.667702,179.812 C221.667702,179.812 216.759702,180.159 216.202702,180.158 C199.637702,180.147 183.072702,180.113 166.506702,180.115 C145.555702,180.118 124.605702,180.15 103.654702,180.166 C84.8027018,180.18 43.8897018,182.074 42.9647018,180.279 C42.5127018,179.403 43.6337018,175.421 43.8387018,174.721 C47.6377018,161.734 48.8777018,152.453 50.0427018,138.977 C51.2707018,124.767 51.0027018,110.547 50.5337018,96.322 C50.4907018,95.012 50.4077018,93.704 50.3427018,92.395 C50.1677018,92.378 35.6727018,121.233 28.1497018,134.94 L28.1497018,134.94 Z" id="Fill-1" fill="#000000"></path>
                        <path d="M133.392702,10.163 C135.758702,9.649 139.391702,9.467 141.824702,8.939 C139.486702,6.925 136.255702,4.172 133.392702,2.851 L133.392702,10.163 Z M96.8887018,178.311 C96.8887018,178.311 139.122702,178.376 160.557702,178.376 C159.489702,177.251 158.674702,176.46 157.935702,175.605 C151.273702,167.902 146.109702,159.326 142.673702,149.707 C139.457702,140.705 137.357702,131.428 135.769702,122.035 C134.417702,114.036 133.327702,104.993 132.068702,96.978 C132.007702,96.592 130.095702,96.649 130.046702,97.057 C129.834702,98.812 128.731702,103.99 128.438702,105.727 C126.335702,118.165 124.854702,128.102 120.783702,140.05 C116.245702,153.37 109.438702,165.404 99.5087018,175.525 C98.6717018,176.379 96.8887018,178.311 96.8887018,178.311 Z M70.5107018,178.965 C70.5107018,178.961 94.6057018,178.382 94.6057018,178.382 C104.742702,169.225 111.957702,158.045 116.929702,145.413 C121.146702,134.698 123.820702,123.524 126.024702,112.246 C126.889702,107.816 127.399702,103.316 128.094702,98.851 C128.249702,97.854 127.858702,97.456 126.890702,97.506 C126.565702,97.522 126.237702,97.491 125.911702,97.493 C113.641702,97.561 101.370702,97.193 89.1017018,97.311 C77.8167018,97.419 54.0797018,95.627 54.1237018,96.911 C54.2657018,101.106 53.8427018,108.128 53.8657018,112.326 C53.9237018,122.78 53.8977018,133.241 52.6027018,143.631 C51.1877018,154.982 49.3687018,166.266 45.8197018,177.194 C45.2307018,179.008 45.3177018,179.069 47.2407018,179.069 C54.7537018,179.068 62.9977018,178.965 70.5107018,178.965 Z M28.1497018,134.94 C23.1667018,144.018 18.5567018,153.301 13.5377018,162.358 C10.5557018,167.738 7.10370181,172.857 3.85770181,178.091 C3.66170181,178.408 3.44270181,178.715 3.19870181,178.996 C2.50970181,179.79 1.60270181,179.685 1.25070181,178.689 C0.756701808,177.29 0.312701808,175.86 0.0197018081,174.409 C-0.0752981919,173.941 0.181701808,172.888 0.608701808,172.907 C2.17670181,172.973 2.77070181,176.693 2.77070181,176.693 C2.77070181,176.693 38.5147018,112.88 45.6557018,96.269 C45.6557018,96.269 49.2407018,89.514 51.3397018,87.843 C55.7827018,86.605 59.8017018,84.381 63.7817018,82.207 C67.8257018,79.998 71.7507018,77.513 75.4957018,74.825 C83.0367018,69.413 90.6157018,64.022 97.8157018,58.176 C105.928702,51.588 113.608702,44.474 120.074702,36.181 C124.129702,30.979 126.960702,25.102 129.436702,19.034 C129.875702,17.958 131.633702,15.488 131.719702,12.174 C131.806702,8.86 132.011702,0 132.011702,0 C132.011702,0 139.592702,5.155 140.868702,6.243 C142.559702,7.686 144.328702,9.038 146.151702,10.499 C145.710702,10.523 145.197702,10.537 144.686702,10.581 C141.630702,10.844 133.473702,12.145 133.473702,12.145 L133.237702,16.239 C137.637702,26.711 143.688702,36.1 151.472702,44.395 C157.153702,50.449 162.637702,56.688 168.306702,62.752 C173.201702,67.987 178.863702,72.328 184.664702,76.519 C190.036702,80.399 195.253702,84.508 201.215702,87.471 C204.093702,88.901 207.094702,91.09 210.066702,92.323 C210.066702,92.323 212.947702,93.558 213.863702,93.923 C214.789702,94.292 216.210702,95.906 216.639702,96.734 C223.720702,110.405 231.015702,123.969 237.899702,137.737 C243.370702,148.678 248.988702,159.523 255.304702,169.999 C256.410702,171.833 259.207702,175.543 259.434702,175.719 C259.716702,175.375 259.946702,175.038 260.231702,174.757 C260.921702,174.074 261.720702,173.925 262.478702,174.582 C263.229702,175.234 263.271702,176.087 262.641702,176.826 C262.102702,177.456 261.460702,178.033 260.764702,178.477 C260.489702,178.652 259.809702,178.553 259.544702,178.318 C258.713702,177.582 257.825702,176.824 257.254702,175.894 C253.568702,169.897 249.668702,164.006 246.387702,157.791 C239.243702,144.26 232.474702,130.532 225.459702,116.932 C221.887702,110.008 218.124702,103.182 214.418702,96.328 C214.195702,95.915 213.774702,95.523 213.350702,95.325 C212.506702,94.932 211.946702,95.104 211.930702,96.236 C211.747702,108.932 211.821702,121.593 213.683702,134.218 C215.878702,149.091 217.334702,160.899 220.867702,175.517 C220.878702,175.563 222.282702,179.412 222.270702,179.45 C222.069702,180.097 219.996702,179.881 219.723702,179.339 C219.271702,178.44 219.092702,177.395 218.857702,176.397 C215.835702,163.581 213.546702,150.635 211.680702,137.599 C209.911702,125.233 208.988702,112.839 209.438702,100.351 C209.501702,98.626 209.638702,96.899 209.600702,95.177 C209.590702,94.705 209.178702,93.994 208.768702,93.817 C199.931702,89.992 191.975702,84.752 184.243702,79.064 C177.306702,73.963 170.603702,68.617 164.699702,62.353 C159.741702,57.093 154.914702,51.702 150.198702,46.224 C146.521702,41.952 142.997702,37.536 139.601702,33.037 C136.607702,29.069 134.428702,24.617 132.812702,19.905 C132.665702,19.474 132.470702,19.06 132.150702,18.277 C131.726702,19.058 131.407702,19.525 131.205702,20.038 C128.173702,27.741 124.311702,34.976 118.651702,41.077 C114.881702,45.141 110.834702,48.948 106.906702,52.865 C95.9147018,63.823 83.5537018,73.048 70.5397018,81.423 C67.2097018,83.565 64.8997018,84.711 61.4657018,86.692 C61.0477018,86.934 57.4227018,87.886 57.0627018,88.377 C96.2987018,89.191 137.501702,88.173 176.679702,89.344 C176.693702,89.515 176.707702,89.687 176.721702,89.859 C176.183702,89.91 175.644702,89.998 175.105702,90.006 C159.571702,90.22 144.037702,90.537 128.501702,90.608 C106.150702,90.71 83.7987018,90.637 61.4467018,90.628 C59.2547018,90.627 57.0617018,90.572 54.8697018,90.512 C53.9347018,90.486 53.2517018,90.698 53.4307018,91.821 C53.5847018,92.789 52.9247018,94.176 54.8747018,94.19 C65.2737018,94.26 75.6727018,94.417 86.0717018,94.502 C101.046702,94.624 116.022702,94.705 130.997702,94.813 C154.090702,94.98 184.695702,94.135 207.788702,94.319 C208.788702,94.326 209.787702,94.476 210.786702,94.559 C210.792702,94.745 210.799702,94.931 210.806702,95.118 C209.805702,95.214 210.603702,96.275 209.602702,96.281 C203.209702,96.322 187.505702,96.417 181.113702,96.48 C170.150702,96.589 159.187702,96.764 148.224702,96.883 C144.119702,96.928 140.014702,96.905 135.908702,96.897 C133.276702,96.892 133.193702,96.908 133.620702,99.579 C134.800702,106.95 135.959702,114.326 137.288702,121.671 C138.117702,126.253 138.924702,130.88 140.293702,135.315 C143.280702,144.99 148.089702,153.627 155.642702,160.616 C159.522702,164.207 163.450702,167.694 167.900702,170.567 C169.554702,171.635 169.769702,172.756 168.593702,174.312 C167.951702,175.16 163.818702,179.198 163.818702,179.198 C163.818702,179.198 163.215702,178.454 162.907702,178.576 C162.801702,178.448 162.696702,178.321 162.590702,178.193 C163.006702,177.712 163.387702,177.196 163.842702,176.757 C166.414702,174.276 167.862702,172.649 167.862702,172.649 C163.575702,170.184 157.982702,164.867 154.435702,161.472 C150.771702,157.966 146.319702,152.125 145.034702,149.716 C143.749702,147.307 142.601702,145.154 142.601702,145.154 C142.601702,145.154 144.444702,149.624 146.194702,154.19 C147.945702,158.756 154.456702,169.249 161.097702,176.696 C162.203702,177.936 163.196702,178.543 164.931702,178.534 C181.822702,178.447 198.714702,178.471 215.606702,178.47 C216.350702,178.47 220.377702,178.474 221.104702,178.603 C221.388702,178.654 221.667702,179.812 221.667702,179.812 C221.667702,179.812 216.759702,180.159 216.202702,180.158 C199.637702,180.147 183.072702,180.113 166.506702,180.115 C145.555702,180.118 124.605702,180.15 103.654702,180.166 C84.8027018,180.18 43.8897018,182.074 42.9647018,180.279 C42.5127018,179.403 43.6337018,175.421 43.8387018,174.721 C47.6377018,161.734 48.8777018,152.453 50.0427018,138.977 C51.2707018,124.767 51.0027018,110.547 50.5337018,96.322 C50.4907018,95.012 50.4077018,93.704 50.3427018,92.395 C50.1677018,92.378 35.6727018,121.233 28.1497018,134.94 Z" id="Stroke-3" stroke="#000000"></path>
                    </g>
                    <g id="Group-7" fill="#FFFFFF">
                        <path d="M80.3421461,51.9566814 C79.6435604,54.0905584 78.7646487,56.151769 77.6727536,58.1193517 C77.4981071,58.4337736 77.3163613,58.739811 77.1360353,59.0486432 C76.4303501,60.053396 75.6508307,61.0064439 74.8329743,61.9259534 C72.9814382,64.0095229 70.8658026,65.8415548 68.6110179,67.4891259 C63.540592,71.1937152 58.072597,74.4483317 51.9429334,76.1098771 C45.7536344,77.7867942 39.2207222,77.9139604 32.9675282,76.4983629 C30.0780528,75.8443652 27.2141354,74.9108814 24.5064058,73.7230651 C22.2502012,72.7322866 20.2595159,71.3348557 18.1623389,70.1162959 C17.672477,69.4525163 17.054825,68.8683902 16.47551,68.2633026 C15.3935541,67.1299861 14.3215374,65.9812979 13.2679793,64.8214303 C11.213399,62.5617845 9.43143752,59.8926915 7.67787382,57.3982773 C3.7461994,51.8071563 3.46506125,45.2657823 3.47203524,38.6852802 C3.47926015,32.5785071 3.90380715,25.8722362 6.8855754,20.3859225 C9.76511159,15.0868646 14.5558192,11.9454399 19.2442948,8.36661936 C20.4284828,7.82860846 21.6140906,7.30177701 22.8295162,6.82804794 C25.3398811,5.84844888 27.8829034,4.99182374 30.5025998,4.33782607 C36.0770865,2.9459849 42.2578661,2.09914177 47.9899606,2.96554893 C50.6210161,3.36241931 53.2037954,4.22183931 55.7283592,5.0309518 C58.5894368,5.94626904 61.417857,7.22911061 63.8160506,9.04297591 C65.9132276,10.62906 68.0373825,12.2249261 70.0948026,13.8627151 C71.2094159,14.7500837 72.2615541,15.7031316 73.2625763,16.7120767 C74.1003112,17.5575224 74.9181677,18.2157123 75.8183777,18.9018509 C77.422853,21.3920728 78.9776321,23.8669229 79.9743947,26.7456305 C81.411323,30.891808 82.2646767,35.221049 82.3015938,39.6075845 C82.3356712,43.805467 81.6484446,47.9628239 80.3421461,51.9566814 M84.9482681,37.8104884 C84.692688,32.9600058 83.5638757,28.2548559 81.5561517,23.8194102 C80.8547263,22.2710568 79.031588,17.3507026 76.7214275,15.5591962 C76.3011402,15.0141981 75.8197976,14.5027384 75.2078252,13.9451635 C74.1556869,12.9879233 73.0424934,12.0893753 71.9193607,11.2145835 C69.5424655,9.3587953 67.0349404,7.83699305 64.5146363,6.19640917 C59.7722049,3.10948431 54.0372706,0.926697249 48.3662314,0.227981799 C42.5517833,-0.488900253 36.1282026,0.582929247 30.5153788,2.07678288 C27.6330028,2.84397244 24.7790247,3.81658435 22.0627758,5.03933639 C20.4043447,5.78556449 17.8854604,6.70507402 16.3690183,8.11927409 C8.022907,11.8560043 2.24253627,20.6039217 0.805607955,29.3238906 C-0.908198842,39.7305585 -0.178375567,51.6967593 5.84905596,60.6780477 C7.48050916,63.10818 9.38600106,65.3831975 11.1977802,67.6847662 C12.3180732,69.1101457 13.9992225,71.1503948 15.8961951,72.1118273 C17.3870792,73.502271 19.3223888,74.6439721 20.9964387,75.6319557 C23.2256654,76.9469382 25.5770026,78.0676778 28.0376714,78.8935594 C33.1052575,80.5942328 38.5476945,81.2677945 43.8893193,80.9044625 C54.6180055,80.1750036 64.4251832,75.2574442 72.5171343,68.4449686 C74.5475765,66.7359106 76.4999247,64.8395969 78.0050077,62.6540149 C78.7674885,61.5486471 79.6861571,60.1009087 80.2881903,58.6196319 C81.4170026,56.4619986 82.2717761,54.1296865 82.9760414,52.0642836 C84.525141,47.5128511 85.2010084,42.6036764 84.9482681,37.8104884" id="Fill-1"></path>
                        <path d="M45.1687346,29.8557449 C45.1255656,30.2215482 45.2742589,30.6706534 45.5860351,30.8426896 C45.6931582,30.9006387 45.7970836,30.9694531 45.9042067,31.031024 C45.9153987,31.0418895 45.9265907,31.0527549 45.9345849,31.0636203 C45.9441781,31.0726749 45.9505735,31.0835403 45.9585677,31.0925949 C45.9761551,31.1306239 45.9953413,31.1668421 46.0145276,31.2030602 C46.0193241,31.2229802 46.0241207,31.2429002 46.0289172,31.2628202 C46.0289172,31.2718747 46.0289172,31.2827402 46.0289172,31.2917947 C46.020923,31.3171474 46.0161264,31.3425001 46.0081322,31.3678529 C45.9809517,31.423991 45.9505735,31.4855619 45.9441781,31.4946164 C45.9441781,31.4964273 45.9393815,31.5054818 45.9361838,31.5091037 C45.8914159,31.5634309 45.846648,31.619569 45.7970836,31.6702745 C45.7954848,31.6720854 45.7842928,31.6811399 45.7778974,31.6883835 C45.7027513,31.7155471 45.6244076,31.7282235 45.5460638,31.7463326 C45.4149579,31.757198 45.283852,31.7553871 45.1543449,31.7445217 C45.1335598,31.737278 45.1127748,31.7354671 45.0919897,31.7282235 C44.9896631,31.6901944 44.8793423,31.6847617 44.7722192,31.6684635 C44.7642249,31.6630308 44.7578295,31.6575981 44.7514341,31.6539763 C44.7914054,31.659409 44.8313767,31.6648417 44.871348,31.6720854 C44.8121905,31.6612199 44.7562306,31.6376781 44.698672,31.619569 C44.6906777,31.6141363 44.6810846,31.6087036 44.6714915,31.60146 C44.6602995,31.5869727 44.6475087,31.5742963 44.6347179,31.5598091 C44.6043397,31.5000491 44.567566,31.4457219 44.5419844,31.3823401 C44.5579729,31.423991 44.5723626,31.4656419 44.5883511,31.5054818 C44.5851534,31.50186 44.5819557,31.4982382 44.578758,31.4946164 C44.5563741,31.4384783 44.5339901,31.3823401 44.5116062,31.326202 C44.49242,31.266442 44.481228,31.2030602 44.4684372,31.1414894 C44.4684372,31.0998385 44.4620418,31.0599985 44.4652395,31.0201586 C44.4668383,30.9748859 44.4780303,30.9278023 44.4780303,30.8825296 C44.4796292,30.618137 44.3773026,30.3953954 44.2621852,30.1762755 C44.3021565,30.1328138 44.3389301,30.0857302 44.3852969,30.0458902 C44.4236693,30.0132938 44.4124774,29.9426684 44.3597152,29.9408575 C44.2733772,29.9390466 44.1902369,29.951723 44.1054977,29.9643993 C44.0607298,29.9372357 44.0159619,29.9082612 43.9695952,29.8810976 C43.5746786,29.6330032 43.0518539,29.6873304 42.7288857,30.0621884 C42.421906,30.4171263 42.1804793,30.8626096 42.0701584,31.3479329 C41.911872,32.0415105 42.0349837,32.6445428 42.3035909,33.2711169 C42.519436,33.7763602 42.8791778,34.1584617 43.2692978,34.486236 C43.4723521,34.6564614 43.6977903,34.7560613 43.9328216,34.8647157 C44.3101508,35.036752 44.6954742,35.0240756 45.0919897,34.9407739 C45.5156856,34.8538503 45.9425792,34.6329196 46.2959256,34.3558507 C46.6108995,34.1113781 46.8603205,33.8252547 47.1353232,33.5355094 C47.776463,32.856419 48.1250129,31.8640416 47.9587322,30.8789078 C47.8803884,30.4098826 47.6325663,29.9336139 47.3271855,29.6058396 C47.1704979,29.4374252 46.9882287,29.2816871 46.7915699,29.1784654 C46.4462177,28.9991855 46.1664185,28.9647783 45.7954848,29.0317818 C45.4597257,29.0933527 45.2103048,29.5080506 45.1687346,29.8557449" id="Fill-3"></path>
                        <path d="M51.8067037,20.1288452 C52.7424432,20.8240231 53.7714822,21.1099431 54.7703361,21.6747751 C55.9996948,22.369953 56.5375392,23.9593314 56.9121094,25.2768056 C57.7010393,28.0477062 58.271813,31.4717376 57.1755434,34.2188114 C55.5263368,38.3506348 50.9875886,41.6709501 46.6450438,42.0423657 C43.6937599,42.294648 41.1156741,41.1411573 38.3400128,40.3380587 C37.0132384,39.954029 35.4175419,39.8853521 34.4694539,38.7472786 C33.6750358,37.7928106 33.6681755,36.2188494 33.3676961,35.0471383 C32.9560805,33.4423426 32.7351801,31.9160347 32.7255757,30.2523731 C32.7214596,29.4520776 32.7420404,28.6714041 32.6967627,27.8711086 C32.6597173,27.2361981 32.5060474,26.5045795 32.5979749,25.8710706 C32.7708535,24.6811391 33.8835877,23.6537895 34.6368443,22.7974313 C35.3832406,21.9522856 36.054174,21.1141478 36.4863704,20.0587668 C37.5936164,19.5752258 38.6171673,19.0496376 39.8588744,18.8351977 C40.4872742,18.7272769 41.1376269,18.6726158 41.745446,18.4623805 C42.4191235,18.2297202 43.0159662,17.8162575 43.697876,17.5976129 C46.6326954,16.6529558 49.5290973,18.4385539 51.8067037,20.1288452 M30.8431203,25.7211028 C29.6027853,28.5074206 30.6784741,31.440903 31.3260827,34.2510475 C31.1312513,33.8684194 30.8897701,33.4927991 30.5796863,33.1185803 C29.3599321,31.6427289 27.3306671,30.8396302 27.4363151,28.6167429 C27.4555238,28.207485 27.1303475,27.7870145 26.7448008,27.6903063 C26.352394,27.5907949 25.9997766,27.4478349 25.6581356,27.2810483 C26.2988839,26.4218869 27.1234872,25.6608353 27.960439,25.0427437 C28.2005481,24.8647445 28.2718948,24.6054544 28.2389655,24.3657862 C28.2650345,24.3531721 28.2897315,24.3545737 28.3171725,24.3377549 C30.7210077,22.9235724 33.0411477,21.4449179 34.4804303,18.9431184 C35.2871969,17.5429517 35.4189139,16.1077458 35.868947,14.5814379 C36.2997714,13.116799 37.0790969,12.7327693 38.4840782,13.0270986 C39.480188,13.2345307 40.4708096,13.5835212 41.4518268,13.8568271 C43.249215,14.3585885 45.1481351,14.7047759 46.9112219,15.2934346 C47.6164567,15.528898 48.2448565,15.8736839 48.8787446,16.204454 C47.4847397,15.753149 46.0632938,15.4686306 44.6830094,15.47704 C42.9789208,15.4854494 41.3983168,16.2773355 39.7806674,16.7230342 C37.9201648,17.2360082 36.2956552,17.6158333 35.0717848,19.2710854 C35.0813891,19.2766917 35.0896214,19.282298 35.0992258,19.2879043 C35.0827612,19.3187388 35.0690407,19.3481717 35.0580642,19.3818093 C34.4282923,20.5268906 33.4033695,21.499579 32.6226718,22.545149 C31.8845078,23.5332547 31.3452914,24.5942419 30.8431203,25.7211028 M62.8983725,25.3440809 C62.5567315,22.6754949 62.0696531,20.1596797 60.7936446,17.7784152 C60.77718,17.7503838 60.7552272,17.7377697 60.7387626,17.7111399 C60.3312631,16.9655056 59.3351533,16.6613652 58.4968295,16.4048782 C56.7515793,15.8708807 54.978888,15.6984878 53.1787557,15.4742369 C51.0753999,15.210742 49.0324144,14.9710739 47.1403546,13.9423227 C45.3196416,12.9528155 43.2986089,12.4524556 41.3365744,11.8259546 C39.9082683,11.3704449 38.294735,10.6178027 36.8005704,11.230288 C35.6096292,11.7180338 34.8467682,12.9962641 34.444757,14.1805893 C33.7422663,16.2521073 33.6311301,18.0545241 32.0175969,19.6789418 C30.6935667,21.0132348 29.1774491,22.0952456 27.6242862,23.1282014 C27.3443876,23.31461 27.2675527,23.5991284 27.3210627,23.8570169 C27.3100863,23.8640248 27.3004819,23.8626232 27.2895055,23.869631 C25.9462665,24.7778473 25.0324799,25.8528502 24.0939963,27.171726 C23.9170016,27.4212051 24.0116731,27.7926207 24.1982722,28.0000529 C24.6043996,28.4485547 25.0558048,28.8073562 25.5428832,29.1297169 C25.5771845,30.6406075 26.379835,31.8950112 27.3567361,33.0905489 C27.9755315,33.8487974 28.7370204,34.5005267 29.2364474,35.3512786 C29.7427346,36.2118416 30.1625825,37.1985457 30.6112435,38.0913447 C31.309618,39.4788973 31.1065543,41.0178193 31.1888774,42.5315131 C31.2423875,43.5140125 30.9583727,44.6759126 31.1710408,45.628979 C31.5346346,47.2533967 34.1264409,47.8504648 35.4573314,47.9625903 C37.7294496,48.1532036 39.6338578,47.1889246 41.8126765,46.7922807 C44.3496008,46.3311648 46.3692614,47.4762461 48.7923053,47.8967166 C50.1067312,48.1237706 51.6585221,48.0018342 52.8206501,47.2758218 C53.3255653,46.9590674 53.7412971,46.5105655 53.9951267,45.9611507 C54.4149746,45.0529345 53.97729,43.4565482 54.9733998,42.950582 C55.7582136,42.551135 55.2107648,41.2546843 54.3779292,41.5097698 C53.1609191,41.8825869 52.7959532,42.9393694 52.6450275,44.1391119 C52.3363158,46.5862502 50.4470001,46.2288503 48.6029621,45.823797 C46.7575521,45.4173422 44.9478155,44.7515973 43.0941731,44.4152209 C41.1335107,44.0592225 39.5872081,44.6282593 37.6704514,44.9478168 C36.6537608,45.1174066 35.6974405,45.0683517 34.6807499,44.9786513 C34.1922994,44.9352027 33.7038489,44.930998 33.2181424,44.8441008 C32.5238841,44.7193612 32.5444649,44.6689047 32.5458369,43.9653174 C32.5499531,43.0374792 32.6062072,42.1208536 32.469002,41.2014247 C32.2892632,39.9988791 31.9983882,38.9336872 32.0025043,37.7059134 C32.0038764,37.5881816 31.9983882,37.4774578 31.9970161,37.3625291 C32.1712667,37.9708098 32.4003994,38.5580669 32.7763417,39.0948676 C33.4911808,40.1138077 34.9826014,41.103315 36.080243,41.6569344 C37.4577833,42.3507108 39.189313,42.7221264 40.6628969,43.1327859 C42.3546371,43.6037128 44.1232122,44.0522147 45.8876711,43.9877425 C48.4616408,43.8924359 51.0699117,43.0556996 53.2267776,41.6148874 C55.3452259,40.1993034 56.8393906,37.7465589 57.956241,35.4774198 C59.4311969,32.4780636 60.4684683,29.4534792 59.3310371,26.1373686 C58.377461,23.3594602 57.2221931,20.636213 54.7044776,19.0328188 C53.5876272,18.3222237 52.3404319,17.6256442 51.0328663,17.0369855 C51.1220497,17.0566075 51.1988846,17.0944498 51.2908121,17.1084655 C53.0237139,17.3775666 54.792289,17.2906694 56.5155863,17.6396599 C57.4499538,17.8302732 58.1332357,18.1358151 58.9180495,18.6950409 C58.9784198,18.7384895 59.0319298,18.7735287 59.0881839,18.811371 C59.9717855,20.8142121 60.2901015,22.8787223 60.5892089,25.0343343 C60.9130132,27.3679455 62.1423718,29.1353232 62.9861838,31.2629039 C63.7709976,33.2405168 64.1839853,35.6638284 62.7117734,37.4255997 C62.1272792,38.1235807 61.2148646,38.8075461 60.3189146,38.9869468 C59.2871315,39.1957805 57.9507528,39.0542221 56.8887845,39.012175 C54.9116575,38.9364904 55.1270697,42.2091524 57.2674709,41.8713744 C57.9123353,41.7704615 58.590129,41.6793595 59.2102966,41.4663212 C59.8826021,41.2350624 60.3847731,40.7907652 61.0076848,40.467003 C61.8926583,40.005887 62.7117734,39.5601883 63.4142641,38.8215618 C64.9578226,37.1957425 65.2281169,35.0737681 64.8439423,32.918156 C64.3829328,30.3392704 63.2345252,27.9706199 62.8983725,25.3440809" id="Fill-5"></path>
                    </g>
                </g>
            </g>
        </g>
    </g>
</svg>